<?xml version="1.0" encoding="utf-8"?>
<!-- Generator: Adobe Illustrator 20.1.0, SVG Export Plug-In . SVG Version: 6.00 Build 0)  -->
<svg version="1.1" id="Layer_1" xmlns="http://www.w3.org/2000/svg" xmlns:xlink="http://www.w3.org/1999/xlink" x="0px" y="0px"
	 width="239.2px" height="82.8px" viewBox="0 0 239.2 82.8" style="enable-background:new 0 0 239.2 82.8;" xml:space="preserve">
<style type="text/css">
	.st0{fill:#EB414B;}
	.st1{fill:#505052;}
</style>
<g>
	<g>
		<path class="st0" d="M41.6,0.1c0,0-0.1-0.1-0.2-0.1c-0.1,0-0.2,0.1-0.2,0.1c-14.1,20.6-1.5,29.5,0,30.5c0,0,0.1,0.1,0.1,0.1
			c0.1,0,0.1,0,0.1,0C43,29.7,55.8,20.8,41.6,0.1 M41.4,24.5c-3.3,0-6-2.7-6-6c0-3.3,2.7-6,6-6c1,0,2,0.3,2.9,0.7c0,0,0.1,0,0.1,0.2
			c0,0.1,0,0.1,0,0.1l-2.2,3.6c0,0,0,0.1-0.1,0.1c-0.1,0-0.2,0-0.2,0c-0.2-0.1-0.3-0.1-0.5-0.1c-0.7,0-1.3,0.6-1.3,1.3
			c0,0.7,0.6,1.3,1.3,1.3c0.7,0,1.3-0.6,1.3-1.3c0-0.1,0-0.3-0.1-0.4c0,0,0-0.1,0-0.1c0-0.1,0.1-0.1,0.1-0.1l3.9-1.7
			c0,0,0.1,0,0.2,0c0.1,0,0.1,0.1,0.1,0.1c0.3,0.7,0.4,1.4,0.4,2.2C47.4,21.8,44.7,24.5,41.4,24.5"/>
	</g>
	<g>
		<path class="st0" d="M41.2,82.7c0,0,0.1,0.1,0.2,0.1c0.1,0,0.2-0.1,0.2-0.1c14.1-20.6,1.5-29.5,0-30.5c0,0-0.1-0.1-0.1-0.1
			c-0.1,0-0.1,0-0.1,0C39.8,53.1,27,62.1,41.2,82.7 M41.4,58.4c3.3,0,6,2.7,6,6c0,3.3-2.7,6-6,6c-1,0-2-0.3-2.9-0.7
			c0,0-0.1,0-0.1-0.2c0-0.1,0-0.2,0-0.2l2.2-3.6c0,0,0-0.1,0.1-0.1c0.1,0,0.2,0,0.2,0c0.2,0.1,0.3,0.1,0.5,0.1
			c0.7,0,1.3-0.6,1.3-1.3c0-0.7-0.6-1.3-1.3-1.3c-0.7,0-1.3,0.6-1.3,1.3c0,0.1,0,0.3,0.1,0.4c0,0,0,0.1,0,0.1c0,0.1-0.1,0.1-0.1,0.1
			l-3.9,1.7c0,0-0.1,0-0.2,0c-0.1,0-0.1-0.1-0.1-0.1c-0.3-0.7-0.4-1.4-0.4-2.2C35.4,61,38.1,58.4,41.4,58.4"/>
	</g>
	<g>
		<path class="st0" d="M0.1,41.3c0,0-0.1,0.1-0.1,0.2c0,0.1,0.1,0.2,0.1,0.2c20.6,14.1,29.5,1.5,30.5,0c0,0,0-0.1,0-0.1
			c0-0.1,0-0.1,0-0.1C29.7,39.9,20.8,27.1,0.1,41.3 M24.5,41.4c0,3.3-2.7,6-6,6c-3.3,0-6-2.7-6-6c0-1,0.3-2,0.7-2.9
			c0,0,0-0.1,0.2-0.1c0.1,0,0.2,0,0.2,0l3.6,2.2c0,0,0.1,0,0.1,0.1c0,0.1,0,0.2,0,0.2c-0.1,0.2-0.1,0.3-0.1,0.5
			c0,0.7,0.6,1.3,1.3,1.3c0.7,0,1.3-0.6,1.3-1.3c0-0.7-0.6-1.3-1.3-1.3c-0.1,0-0.2,0-0.4,0.1c0,0-0.1,0-0.1,0
			c-0.1,0-0.1-0.1-0.1-0.1l-1.7-3.9c0,0-0.1-0.1,0-0.2c0-0.1,0.1-0.1,0.1-0.1c0.7-0.3,1.4-0.4,2.2-0.4
			C21.8,35.5,24.5,38.1,24.5,41.4"/>
	</g>
	<g>
		<path class="st0" d="M82.7,41.6c0,0,0.1-0.1,0.1-0.2c0-0.1-0.1-0.2-0.1-0.2c-20.6-14.1-29.5-1.5-30.5,0c0,0-0.1,0.1-0.1,0.1
			c0,0.1,0,0.1,0,0.1C53.1,43,62.1,55.8,82.7,41.6 M58.4,41.4c0-3.3,2.7-6,6-6c3.3,0,6,2.7,6,6c0,1-0.3,2-0.7,2.9c0,0,0,0.1-0.2,0.1
			c-0.1,0-0.2,0-0.2,0l-3.6-2.2c0,0-0.1,0-0.1-0.1c0-0.1,0-0.2,0-0.2c0.1-0.2,0.1-0.3,0.1-0.5c0-0.7-0.6-1.3-1.3-1.3
			c-0.7,0-1.3,0.6-1.3,1.3c0,0.7,0.6,1.3,1.3,1.3c0.1,0,0.2,0,0.4-0.1c0,0,0.1,0,0.1,0c0.1,0,0.1,0.1,0.1,0.1l1.7,3.9
			c0,0,0.1,0.1,0,0.2c0,0.1-0.1,0.1-0.1,0.1c-0.7,0.3-1.4,0.4-2.2,0.4C61,47.4,58.4,44.7,58.4,41.4"/>
	</g>
	<g>
		<path class="st0" d="M70.7,12.3c0,0,0-0.1-0.1-0.2c-0.1-0.1-0.2-0.1-0.2-0.1c-24.6,4.6-21.9,19.9-21.5,21.6c0,0,0,0.1,0.1,0.1
			c0.1,0.1,0.1,0.1,0.1,0.1C50.8,34.2,66.2,37,70.7,12.3 M53.4,29.4c-2.3-2.3-2.3-6.1,0-8.5c2.3-2.3,6.1-2.3,8.4,0
			c0.7,0.7,1.2,1.6,1.5,2.5c0,0,0,0.1,0,0.2c0,0.1-0.1,0.1-0.1,0.1l-4.1,1c0,0-0.1,0-0.1,0c-0.1,0-0.1-0.1-0.1-0.1
			c-0.1-0.2-0.2-0.3-0.3-0.4c-0.5-0.5-1.4-0.5-1.9,0c-0.5,0.5-0.5,1.4,0,1.9c0.5,0.5,1.4,0.5,1.9,0c0.1-0.1,0.2-0.2,0.2-0.3
			c0,0,0-0.1,0.1-0.1c0.1,0,0.2,0,0.2,0l4,1.5c0,0,0.1,0,0.1,0.1c0,0.1,0,0.2,0,0.2c-0.3,0.7-0.7,1.3-1.3,1.9
			C59.5,31.8,55.7,31.8,53.4,29.4"/>
	</g>
	<g>
		<path class="st0" d="M12.1,70.5c0,0,0,0.1,0.1,0.2c0.1,0.1,0.2,0.1,0.2,0.1c24.6-4.6,21.9-19.9,21.5-21.6c0,0,0-0.1-0.1-0.1
			c-0.1-0.1-0.1-0.1-0.1-0.1C32,48.6,16.6,45.8,12.1,70.5 M29.4,53.4c2.3,2.3,2.3,6.1,0,8.5c-2.3,2.3-6.1,2.3-8.5,0
			c-0.7-0.7-1.2-1.6-1.5-2.5c0,0,0-0.1,0-0.2c0-0.1,0.1-0.1,0.1-0.1l4.1-1c0,0,0.1,0,0.1,0c0.1,0,0.1,0.1,0.1,0.1
			c0.1,0.2,0.2,0.3,0.3,0.4c0.5,0.5,1.4,0.5,1.9,0c0.5-0.5,0.5-1.4,0-1.9c-0.5-0.5-1.4-0.5-1.9,0c-0.1,0.1-0.2,0.2-0.2,0.3
			c0,0,0,0.1-0.1,0.1c-0.1,0-0.2,0-0.2,0l-4-1.5c0,0-0.1,0-0.1-0.1c0-0.1,0-0.2,0-0.2c0.3-0.7,0.7-1.3,1.3-1.9
			C23.3,51,27.1,51,29.4,53.4"/>
	</g>
	<g>
		<path class="st0" d="M12.3,12.1c0,0-0.1,0-0.2,0.1C12,12.2,12,12.4,12,12.4c4.6,24.6,19.8,21.9,21.6,21.5c0,0,0.1,0,0.1-0.1
			c0.1-0.1,0.1-0.1,0.1-0.1C34.2,32,36.9,16.7,12.3,12.1 M29.4,29.5c-2.3,2.3-6.1,2.3-8.4,0c-2.3-2.3-2.3-6.1,0-8.5
			c0.7-0.7,1.6-1.2,2.5-1.5c0,0,0.1,0,0.2,0c0.1,0,0.1,0.1,0.1,0.1l1,4.1c0,0,0,0.1,0,0.1c0,0.1-0.1,0.1-0.1,0.1
			c-0.2,0.1-0.3,0.2-0.4,0.3c-0.5,0.5-0.5,1.4,0,1.9c0.5,0.5,1.4,0.5,1.9,0c0.5-0.5,0.5-1.4,0-1.9c-0.1-0.1-0.2-0.2-0.3-0.2
			c0,0-0.1,0-0.1-0.1c0-0.1,0-0.2,0-0.2l1.5-4c0,0,0-0.1,0.1-0.1c0.1,0,0.2,0,0.2,0c0.7,0.3,1.3,0.7,1.9,1.3
			C31.7,23.3,31.7,27.1,29.4,29.5"/>
	</g>
	<g>
		<path class="st0" d="M70.5,70.8c0,0,0.1,0,0.2-0.1c0.1-0.1,0.1-0.2,0.1-0.2C66.2,45.9,50.9,48.6,49.1,49c0,0-0.1,0-0.1,0.1
			c-0.1,0.1-0.1,0.1-0.1,0.1C48.6,50.9,45.8,66.2,70.5,70.8 M53.4,53.4c2.3-2.3,6.1-2.3,8.5,0c2.3,2.3,2.3,6.1,0,8.4
			c-0.7,0.7-1.6,1.2-2.5,1.5c0,0-0.1,0-0.2,0C59,63.3,59,63.2,59,63.2l-1-4.1c0,0,0-0.1,0-0.1c0-0.1,0.1-0.1,0.1-0.1
			c0.2-0.1,0.3-0.2,0.4-0.3c0.5-0.5,0.5-1.4,0-1.9c-0.5-0.5-1.4-0.5-1.9,0c-0.5,0.5-0.5,1.4,0,1.9c0.1,0.1,0.2,0.2,0.3,0.2
			c0,0,0.1,0,0.1,0.1c0,0.1,0,0.2,0,0.2l-1.5,4c0,0,0,0.1-0.1,0.1c-0.1,0-0.2,0-0.2,0c-0.7-0.3-1.3-0.7-1.9-1.3
			C51,59.5,51,55.8,53.4,53.4"/>
	</g>
	<g>
		<rect x="98.3" y="12.5" class="st1" width="3.7" height="16.6"/>
	</g>
	<g>
		<path class="st1" d="M105.3,16.4h3.6v1.8c0.8-1.1,1.9-2,3.7-2c2.7,0,4.3,1.8,4.3,4.7v8.2h-3.6V22c0-1.7-0.8-2.6-2.2-2.6
			c-1.4,0-2.3,0.9-2.3,2.6v7.1h-3.6V16.4z"/>
	</g>
	<g>
		<path class="st1" d="M119,22.8L119,22.8c0-4.3,2.8-6.6,5.8-6.6c1.9,0,3.1,0.9,4,1.9v-6.3h3.6v17.3h-3.6v-1.8
			c-0.9,1.2-2.1,2.1-4,2.1C121.8,29.3,119,27,119,22.8 M128.8,22.8L128.8,22.8c0-2.2-1.4-3.6-3.1-3.6c-1.7,0-3.1,1.4-3.1,3.5v0
			c0,2.1,1.4,3.5,3.1,3.5C127.4,26.3,128.8,24.9,128.8,22.8"/>
	</g>
	<g>
		<path class="st1" d="M135.2,11.8h3.8V15h-3.8V11.8z M135.3,16.4h3.6v12.7h-3.6V16.4z"/>
	</g>
	<g>
		<path class="st1" d="M141.1,25.4L141.1,25.4c0-2.8,2.1-4.1,5.1-4.1c1.3,0,2.2,0.2,3.1,0.5v-0.2c0-1.5-0.9-2.3-2.7-2.3
			c-1.4,0-2.3,0.3-3.5,0.7l-0.9-2.8c1.4-0.6,2.8-1,4.9-1c2,0,3.4,0.5,4.3,1.4c0.9,0.9,1.4,2.4,1.4,4.1v7.4h-3.5v-1.4
			c-0.9,1-2.1,1.6-3.8,1.6C143,29.3,141.1,28,141.1,25.4 M149.3,24.6V24c-0.6-0.3-1.4-0.5-2.3-0.5c-1.5,0-2.5,0.6-2.5,1.8v0
			c0,1,0.8,1.5,2,1.5C148.2,26.8,149.3,25.9,149.3,24.6"/>
	</g>
	<g>
		<path class="st1" d="M155.4,16.4h3.6v1.8c0.8-1.1,1.9-2,3.7-2c2.7,0,4.3,1.8,4.3,4.7v8.2h-3.6V22c0-1.7-0.8-2.6-2.2-2.6
			c-1.4,0-2.3,0.9-2.3,2.6v7.1h-3.6V16.4z"/>
	</g>
	<g>
		<path class="st1" d="M103.9,34.1h3.4l7.1,16.7h-3.8l-1.5-3.7h-7l-1.5,3.7h-3.7L103.9,34.1z M107.7,43.9l-2.2-5.4l-2.2,5.4H107.7z"
			/>
	</g>
	<g>
		<path class="st1" d="M115.1,49.2l1.5-2.4c1.4,1,2.8,1.5,4,1.5c1,0,1.5-0.4,1.5-0.9v0c0-0.8-1.2-1-2.6-1.5
			c-1.8-0.5-3.8-1.4-3.8-3.8v0c0-2.6,2.1-4,4.7-4c1.6,0,3.4,0.5,4.7,1.5l-1.4,2.5c-1.3-0.7-2.5-1.2-3.4-1.2c-0.9,0-1.3,0.4-1.3,0.9
			v0c0,0.7,1.2,1,2.6,1.5c1.8,0.6,3.8,1.4,3.8,3.8v0c0,2.8-2.1,4.1-4.9,4.1C118.7,51.1,116.7,50.5,115.1,49.2"/>
	</g>
	<g>
		<path class="st1" d="M126.3,49.2l1.5-2.4c1.4,1,2.8,1.5,4,1.5c1,0,1.5-0.4,1.5-0.9v0c0-0.8-1.2-1-2.6-1.5
			c-1.8-0.5-3.8-1.4-3.8-3.8v0c0-2.6,2.1-4,4.7-4c1.6,0,3.4,0.5,4.7,1.5l-1.4,2.5c-1.3-0.7-2.5-1.2-3.4-1.2c-0.9,0-1.3,0.4-1.3,0.9
			v0c0,0.7,1.2,1,2.6,1.5c1.8,0.6,3.8,1.4,3.8,3.8v0c0,2.8-2.1,4.1-4.9,4.1C129.9,51.1,127.9,50.5,126.3,49.2"/>
	</g>
	<g>
		<path class="st1" d="M138.1,44.5L138.1,44.5c0-3.7,2.9-6.7,6.9-6.7c3.9,0,6.9,2.9,6.9,6.6v0c0,3.7-2.9,6.6-6.9,6.6
			C141,51.1,138.1,48.2,138.1,44.5 M148.3,44.5L148.3,44.5c0-1.9-1.4-3.6-3.3-3.6c-2.1,0-3.3,1.6-3.3,3.5v0c0,1.9,1.4,3.5,3.3,3.5
			C147,48,148.3,46.4,148.3,44.5"/>
	</g>
	<g>
		<path class="st1" d="M153.3,44.5L153.3,44.5c0-3.7,2.8-6.7,6.7-6.7c2.4,0,3.9,0.8,5.1,2.1l-2.2,2.4c-0.8-0.9-1.6-1.4-2.9-1.4
			c-1.8,0-3.1,1.6-3.1,3.5v0c0,1.9,1.3,3.5,3.2,3.5c1.2,0,2-0.5,2.9-1.4l2.1,2.1c-1.2,1.4-2.7,2.3-5.2,2.3
			C156.1,51.1,153.3,48.2,153.3,44.5"/>
	</g>
	<g>
		<path class="st1" d="M167.6,33.5h3.8v3.2h-3.8V33.5z M167.7,38.1h3.6v12.7h-3.6V38.1z"/>
	</g>
	<g>
		<path class="st1" d="M173.4,47.2L173.4,47.2c0-2.8,2.1-4.1,5.1-4.1c1.3,0,2.2,0.2,3.1,0.5v-0.2c0-1.5-0.9-2.3-2.7-2.3
			c-1.4,0-2.3,0.3-3.5,0.7l-0.9-2.8c1.4-0.6,2.8-1,4.9-1c2,0,3.4,0.5,4.3,1.4c1,0.9,1.4,2.3,1.4,4.1v7.4h-3.5v-1.4
			c-0.9,1-2.1,1.6-3.8,1.6C175.4,51.1,173.4,49.7,173.4,47.2 M181.7,46.4v-0.6c-0.6-0.3-1.4-0.5-2.3-0.5c-1.5,0-2.5,0.6-2.5,1.8V47
			c0,1,0.8,1.5,2,1.5C180.6,48.6,181.7,47.7,181.7,46.4"/>
	</g>
	<g>
		<path class="st1" d="M188.2,47.2v-6h-1.5v-3.1h1.5v-3.3h3.6v3.3h3v3.1h-3v5.4c0,0.8,0.4,1.2,1.2,1.2c0.7,0,1.3-0.2,1.8-0.5v2.9
			c-0.8,0.5-1.6,0.7-2.8,0.7C189.7,51,188.2,50.2,188.2,47.2"/>
	</g>
	<g>
		<path class="st1" d="M197.1,33.5h3.8v3.2h-3.8V33.5z M197.2,38.1h3.6v12.7h-3.6V38.1z"/>
	</g>
	<g>
		<path class="st1" d="M203.1,44.5L203.1,44.5c0-3.7,2.9-6.7,6.9-6.7c3.9,0,6.9,2.9,6.9,6.6v0c0,3.7-2.9,6.6-6.9,6.6
			C206,51.1,203.1,48.2,203.1,44.5 M213.3,44.5L213.3,44.5c0-1.9-1.4-3.6-3.3-3.6c-2.1,0-3.3,1.6-3.3,3.5v0c0,1.9,1.4,3.5,3.3,3.5
			C212.1,48,213.3,46.4,213.3,44.5"/>
	</g>
	<g>
		<path class="st1" d="M219,38.1h3.6v1.8c0.8-1.1,1.9-2,3.7-2c2.7,0,4.3,1.8,4.3,4.7v8.2H227v-7.1c0-1.7-0.8-2.6-2.2-2.6
			c-1.4,0-2.3,0.9-2.3,2.6v7.1H219V38.1z"/>
	</g>
	<g>
		<path class="st1" d="M98.4,62.9h-1.5v-3h1.5v-0.8c0-1.4,0.3-2.4,1-3.1c0.7-0.7,1.6-1,2.9-1c1.1,0,1.9,0.1,2.6,0.4v3
			c-0.5-0.2-1-0.3-1.6-0.3c-0.8,0-1.3,0.4-1.3,1.4V60h2.9v2.9H102v9.6h-3.6V62.9z"/>
	</g>
	<g>
		<path class="st1" d="M105.5,66.3L105.5,66.3c0-3.7,2.9-6.7,6.9-6.7c3.9,0,6.9,2.9,6.9,6.6v0c0,3.7-2.9,6.6-6.9,6.6
			C108.4,72.9,105.5,69.9,105.5,66.3 M115.7,66.3L115.7,66.3c0-1.9-1.3-3.6-3.3-3.6c-2.1,0-3.3,1.6-3.3,3.5v0c0,1.9,1.4,3.5,3.3,3.5
			C114.5,69.8,115.7,68.2,115.7,66.3"/>
	</g>
	<g>
		<path class="st1" d="M121.4,59.9h3.6v2.6c0.7-1.8,1.9-2.9,4.1-2.8v3.8h-0.2c-2.4,0-3.9,1.5-3.9,4.5v4.7h-3.6V59.9z"/>
	</g>
	<g>
		<path class="st1" d="M137.1,69v-6h-1.5v-3.1h1.5v-3.3h3.6v3.3h3v3.1h-3v5.4c0,0.8,0.4,1.2,1.2,1.2c0.7,0,1.3-0.2,1.8-0.5v2.9
			c-0.8,0.4-1.6,0.7-2.8,0.7C138.6,72.8,137.1,71.9,137.1,69"/>
	</g>
	<g>
		<path class="st1" d="M145.9,55.3h3.6v6.4c0.8-1.1,1.9-2,3.7-2c2.7,0,4.3,1.8,4.3,4.7v8.2H154v-7.1c0-1.7-0.8-2.6-2.2-2.6
			c-1.4,0-2.3,0.9-2.3,2.6v7.1h-3.6V55.3z"/>
	</g>
	<g>
		<path class="st1" d="M159.6,66.3L159.6,66.3c0-3.7,2.6-6.7,6.3-6.7c4.2,0,6.2,3.3,6.2,6.9c0,0.3,0,0.6-0.1,1h-8.8
			c0.4,1.6,1.5,2.5,3.1,2.5c1.2,0,2.1-0.4,3.1-1.3l2.1,1.8c-1.2,1.5-2.9,2.4-5.2,2.4C162.4,72.9,159.6,70.2,159.6,66.3 M168.6,65.2
			c-0.2-1.6-1.2-2.7-2.7-2.7c-1.5,0-2.5,1.1-2.7,2.7H168.6z"/>
	</g>
	<g>
		<path class="st1" d="M180.8,56h7.7c1.9,0,3.4,0.5,4.3,1.5c0.8,0.8,1.1,1.7,1.1,2.8v0c0,1.9-1,2.9-2.2,3.6c1.9,0.7,3.1,1.9,3.1,4.1
			v0c0,3-2.5,4.6-6.2,4.6h-7.9V56z M187.8,62.7c1.6,0,2.6-0.5,2.6-1.8v0c0-1.1-0.9-1.7-2.4-1.7h-3.6v3.5H187.8z M188.7,69.4
			c1.6,0,2.6-0.6,2.6-1.8v0c0-1.1-0.8-1.8-2.7-1.8h-4.2v3.7H188.7z"/>
	</g>
	<g>
		<rect x="197.3" y="55.3" class="st1" width="3.6" height="17.3"/>
	</g>
	<g>
		<path class="st1" d="M203.9,55.3h3.8v3.2h-3.8V55.3z M204,59.9h3.6v12.7H204V59.9z"/>
	</g>
	<g>
		<path class="st1" d="M210.5,59.9h3.6v1.8c0.8-1.1,1.9-2,3.7-2c2.7,0,4.3,1.8,4.3,4.7v8.2h-3.6v-7.1c0-1.7-0.8-2.6-2.2-2.6
			c-1.4,0-2.3,0.9-2.3,2.6v7.1h-3.6V59.9z"/>
	</g>
	<g>
		<path class="st1" d="M224.2,66.2L224.2,66.2c0-4.3,2.8-6.6,5.8-6.6c1.9,0,3.1,0.9,4,1.9v-6.3h3.6v17.3H234v-1.8
			c-0.9,1.2-2.1,2.1-4,2.1C227.1,72.8,224.2,70.5,224.2,66.2 M234,66.2L234,66.2c0-2.2-1.4-3.6-3.1-3.6c-1.7,0-3.1,1.4-3.1,3.5v0
			c0,2.1,1.4,3.5,3.1,3.5C232.6,69.8,234,68.4,234,66.2"/>
	</g>
	<g>
		<path class="st1" d="M231.5,26.8c-4.3,0-7.7-3.5-7.7-7.7c0-4.3,3.5-7.7,7.7-7.7c4.3,0,7.7,3.5,7.7,7.7
			C239.2,23.3,235.8,26.8,231.5,26.8z M231.5,12.3c-3.7,0-6.7,3-6.7,6.7s3,6.7,6.7,6.7s6.7-3,6.7-6.7S235.2,12.3,231.5,12.3z"/>
	</g>
	<g>
		<path class="st1" d="M228.1,22.9v-7.8h3.3c0.8,0,1.4,0.1,1.8,0.2c0.4,0.1,0.7,0.4,0.9,0.7c0.2,0.4,0.3,0.8,0.3,1.2
			c0,0.6-0.2,1.1-0.5,1.5c-0.3,0.4-0.9,0.6-1.5,0.7c0.3,0.2,0.6,0.4,0.8,0.7c0.2,0.2,0.5,0.7,0.9,1.3l1,1.5h-1.9l-1.1-1.7
			c-0.4-0.6-0.7-1-0.8-1.1s-0.3-0.3-0.5-0.3s-0.4-0.1-0.8-0.1h-0.3v3.3H228.1z M229.7,18.4h1.2c0.8,0,1.2,0,1.4-0.1s0.3-0.2,0.4-0.3
			c0.1-0.2,0.2-0.4,0.2-0.6c0-0.3-0.1-0.5-0.2-0.6c-0.1-0.2-0.3-0.3-0.6-0.3c-0.1,0-0.5,0-1.2,0h-1.2V18.4z"/>
	</g>
</g>
</svg>
